# xmcd
#
# Track frame offsets:
# 150
# 11896
# 22080
# 46915
# 61570
# 81721
# 100526
# 123351
# 145796
# 165872
# 185382
# 205748
# 223038
# 251263
#
# Disc length: 3604 seconds
#
#
# Revision: 0
# Processed by: cddbd v1.5.1PL0 Copyright (c) Steve Scherf et al.
# Submitted via: FreeRIP 2.942 
#
DISCID=b40e120e
DTITLE=Joaquin Sabina y Fito Paez - Enemigos Intimos
DYEAR=1900
DGENRE=Alt. Rock
TTITLE0=La Vida Moderna
TTITLE1=Lazaro
TTITLE2=Llueve Sobre Mojado
TTITLE3=Tengo Una Muñeca Que Regala Besos
TTITLE4=Si Volvieran Los Dragones
TTITLE5=Cecilia
TTITLE6=Delirium Tremens
TTITLE7=Yo Me Bajo En Atocha
TTITLE8=Buenos Aires
TTITLE9=Mas Guapa Que Cualquiera
TTITLE10=Flores En Su Entierro
TTITLE11=Hasta Cuando?
TTITLE12=La Cancion De Los (Buenos) Borrachos
TTITLE13=Enemigos Intimos
EXTD=
EXTT0=
EXTT1=
EXTT2=
EXTT3=
EXTT4=
EXTT5=
EXTT6=
EXTT7=
EXTT8=
EXTT9=
EXTT10=
EXTT11=
EXTT12=
EXTT13=
PLAYORDER=
